<svg width="128" height="40" viewBox="0 0 128 40" fill="none" xmlns="http://www.w3.org/2000/svg">
<g clip-path="url(#clip0_1_2)">
<rect width="128" height="40" fill="white"/>
<path d="M17.5884 20.6602C17.6453 21.4805 17.8105 22.2324 18.084 22.916C18.3688 23.5882 18.7391 24.1693 19.1948 24.6592C19.6506 25.1491 20.186 25.5308 20.8013 25.8042C21.4165 26.0662 22.0944 26.1973 22.835 26.1973C23.4844 26.1973 24.1053 26.1289 24.6978 25.9922C25.3016 25.8555 25.8314 25.6333 26.2871 25.3257C26.7428 25.0181 27.1074 24.6193 27.3809 24.1294C27.6543 23.6281 27.791 23.0186 27.791 22.3008C27.791 21.6514 27.5916 21.1102 27.1929 20.6772C26.8055 20.2329 26.2928 19.8455 25.6548 19.5151C25.0168 19.1847 24.2876 18.8885 23.4673 18.6265C22.647 18.3644 21.8096 18.091 20.9551 17.8062C20.112 17.5213 19.2803 17.2023 18.46 16.8491C17.6396 16.4845 16.9105 16.0459 16.2725 15.5332C15.6344 15.0091 15.116 14.3825 14.7173 13.6533C14.3299 12.9242 14.1362 12.0469 14.1362 11.0215C14.1362 9.97331 14.3413 9.05046 14.7515 8.25293C15.1616 7.44401 15.737 6.76611 16.4775 6.21924C17.2295 5.67236 18.1182 5.26221 19.1436 4.98877C20.1803 4.70394 21.314 4.56152 22.5444 4.56152C24.1851 4.56152 25.5465 4.80078 26.6289 5.2793C27.7227 5.75781 28.5999 6.37874 29.2607 7.14209C29.9215 7.89404 30.4001 8.73145 30.6963 9.6543C30.9925 10.5771 31.1691 11.4829 31.2261 12.3716H27.1074C27.0391 11.6082 26.8739 10.9474 26.6118 10.3892C26.3612 9.83089 26.0308 9.36947 25.6206 9.00488C25.2104 8.6403 24.7433 8.37256 24.2192 8.20166C23.6951 8.01937 23.1369 7.92822 22.5444 7.92822C22.009 7.92822 21.4792 7.98519 20.9551 8.09912C20.431 8.20166 19.9639 8.37826 19.5537 8.62891C19.1436 8.86816 18.8132 9.18717 18.5625 9.58594C18.3118 9.97331 18.1865 10.4518 18.1865 11.0215C18.1865 11.6823 18.3802 12.2406 18.7676 12.6963C19.1663 13.1406 19.6847 13.5337 20.3228 13.8755C20.9608 14.2059 21.6899 14.5078 22.5103 14.7812C23.3306 15.0433 24.168 15.3224 25.0225 15.6187C25.877 15.9035 26.7144 16.2225 27.5347 16.5757C28.355 16.9289 29.0841 17.3618 29.7222 17.8745C30.3602 18.3872 30.8729 19.0024 31.2603 19.7202C31.659 20.438 31.8584 21.2982 31.8584 22.3008C31.8584 23.5199 31.6305 24.5851 31.1748 25.4966C30.7305 26.408 30.1038 27.1657 29.2949 27.7695C28.4974 28.3734 27.5461 28.8291 26.4409 29.1367C25.3472 29.4443 24.1452 29.5981 22.835 29.5981C21.6615 29.5981 20.5221 29.3931 19.417 28.9829C18.3118 28.5728 17.3206 27.9803 16.4434 27.2056C15.5775 26.4308 14.8711 25.4966 14.3242 24.4028C13.7887 23.2977 13.5039 22.0501 13.4697 20.6602H17.5884ZM57.1583 24.5L59.4623 29H54.4223L52.1183 24.5L46.6103 13.7L41.1023 24.5L38.7983 29H33.7583L36.0623 24.5L46.6103 3.8L57.1583 24.5ZM61.635 3.8L74.199 3.836C81.147 3.836 86.799 9.452 86.799 16.4C86.799 19.496 85.683 22.34 83.811 24.536C83.595 24.788 83.343 25.04 83.091 25.292C80.823 27.596 77.691 29 74.235 29H61.635V3.8ZM66.099 8.336V24.536H74.199C78.663 24.536 82.299 20.9 82.299 16.436C82.299 11.972 78.663 8.336 74.199 8.336H66.099ZM109.26 24.5L111.564 29H106.524L104.22 24.5L98.7119 13.7L93.2039 24.5L90.8999 29H85.8599L88.1639 24.5L98.7119 3.8L109.26 24.5Z" fill="url(#paint0_linear_1_2)"/>
<path d="M17.8506 33.8364C17.8272 33.6016 17.7236 33.4148 17.5396 33.2761C17.3556 33.1375 17.1242 33.0681 16.8455 33.0681C16.6491 33.0681 16.4761 33.1018 16.3264 33.169C16.1781 33.2363 16.0614 33.3297 15.9763 33.4491C15.8925 33.5672 15.8506 33.7018 15.8506 33.8528C15.8506 33.9641 15.8747 34.0616 15.9227 34.1453C15.9708 34.2291 16.0353 34.3012 16.1163 34.3616C16.1987 34.4206 16.2893 34.4714 16.3882 34.514C16.4884 34.5566 16.5894 34.5923 16.691 34.6211L17.1359 34.7488C17.2704 34.7859 17.405 34.8332 17.5396 34.8909C17.6741 34.9486 17.797 35.0214 17.9082 35.1092C18.0208 35.1957 18.1108 35.3022 18.1781 35.4285C18.2467 35.5534 18.281 35.7038 18.281 35.8795C18.281 36.1047 18.2227 36.3073 18.106 36.4871C17.9893 36.667 17.8217 36.8098 17.6034 36.9156C17.3851 37.0199 17.1235 37.0721 16.8187 37.0721C16.5317 37.0721 16.2825 37.0247 16.071 36.93C15.8596 36.8339 15.6934 36.7013 15.5726 36.5325C15.4518 36.3636 15.3838 36.1679 15.3687 35.9455H15.7641C15.7779 36.1116 15.8328 36.2523 15.9289 36.3677C16.025 36.483 16.15 36.5709 16.3038 36.6313C16.4576 36.6904 16.6292 36.7199 16.8187 36.7199C17.0288 36.7199 17.2155 36.6849 17.3789 36.6148C17.5437 36.5434 17.6728 36.4446 17.7661 36.3183C17.8609 36.1906 17.9082 36.0423 17.9082 35.8734C17.9082 35.7306 17.8712 35.6111 17.797 35.515C17.7229 35.4175 17.6192 35.3358 17.486 35.2699C17.3542 35.204 17.2011 35.1456 17.0267 35.0948L16.5221 34.9465C16.1912 34.8477 15.9344 34.711 15.7518 34.5366C15.5692 34.3623 15.4778 34.1398 15.4778 33.8693C15.4778 33.6428 15.5383 33.4437 15.6591 33.272C15.7813 33.099 15.9461 32.9644 16.1534 32.8683C16.3621 32.7708 16.5962 32.7221 16.8558 32.7221C17.118 32.7221 17.3501 32.7701 17.5519 32.8663C17.7538 32.9624 17.9137 33.0949 18.0318 33.2638C18.1513 33.4313 18.2151 33.6222 18.2234 33.8364H17.8506ZM20.3613 37.0659C20.088 37.0659 19.8464 36.9966 19.6363 36.8579C19.4276 36.7192 19.2642 36.5277 19.1461 36.2832C19.028 36.0375 18.969 35.7539 18.969 35.4326C18.969 35.1085 19.028 34.8236 19.1461 34.5778C19.2642 34.3307 19.4276 34.1384 19.6363 34.0011C19.8464 33.8625 20.088 33.7931 20.3613 33.7931C20.6345 33.7931 20.8755 33.8625 21.0842 34.0011C21.2929 34.1398 21.4563 34.3321 21.5744 34.5778C21.6939 34.8236 21.7536 35.1085 21.7536 35.4326C21.7536 35.7539 21.6946 36.0375 21.5765 36.2832C21.4584 36.5277 21.2943 36.7192 21.0842 36.8579C20.8755 36.9966 20.6345 37.0659 20.3613 37.0659ZM20.3613 36.7302C20.581 36.7302 20.767 36.6711 20.9195 36.5531C21.0719 36.435 21.1872 36.2777 21.2655 36.0814C21.3451 35.885 21.3849 35.6688 21.3849 35.4326C21.3849 35.1964 21.3451 34.9795 21.2655 34.7817C21.1872 34.584 21.0719 34.4254 20.9195 34.306C20.767 34.1865 20.581 34.1268 20.3613 34.1268C20.143 34.1268 19.9569 34.1865 19.8031 34.306C19.6507 34.4254 19.5347 34.584 19.455 34.7817C19.3768 34.9795 19.3376 35.1964 19.3376 35.4326C19.3376 35.6688 19.3768 35.885 19.455 36.0814C19.5347 36.2777 19.6507 36.435 19.8031 36.5531C19.9555 36.6711 20.1416 36.7302 20.3613 36.7302ZM24.5687 35.791V33.8364H24.9353V37H24.5687V36.4748H24.5398C24.4657 36.6368 24.3483 36.7721 24.1876 36.8805C24.027 36.9876 23.8306 37.0412 23.5986 37.0412C23.3967 37.0412 23.2175 36.9973 23.061 36.9094C22.9045 36.8201 22.7816 36.6897 22.6923 36.518C22.6031 36.3464 22.5584 36.1356 22.5584 35.8857V33.8364H22.9251V35.8631C22.9251 36.1102 22.9978 36.3093 23.1434 36.4604C23.2889 36.61 23.4757 36.6849 23.7036 36.6849C23.8464 36.6849 23.9837 36.6505 24.1155 36.5819C24.2474 36.5132 24.3558 36.413 24.441 36.2812C24.5261 36.148 24.5687 35.9846 24.5687 35.791ZM26.2725 35.0227V37H25.9059V33.8364H26.2622V34.3327H26.2952C26.3693 34.1707 26.4847 34.041 26.6412 33.9435C26.7991 33.8446 26.9941 33.7952 27.2261 33.7952C27.439 33.7952 27.6257 33.8398 27.7864 33.929C27.9484 34.0169 28.074 34.1467 28.1633 34.3183C28.2539 34.49 28.2992 34.7007 28.2992 34.9506V37H27.9326V34.9733C27.9326 34.7138 27.8598 34.5085 27.7143 34.3575C27.5701 34.2064 27.3765 34.1309 27.1335 34.1309C26.9673 34.1309 26.8197 34.1666 26.6906 34.238C26.5616 34.3094 26.4593 34.4124 26.3837 34.5469C26.3096 34.6801 26.2725 34.8387 26.2725 35.0227ZM30.4037 37.0659C30.1442 37.0659 29.9169 36.9973 29.7219 36.8599C29.5269 36.7226 29.3745 36.5311 29.2647 36.2853C29.1562 36.0395 29.102 35.7532 29.102 35.4264C29.102 35.101 29.1562 34.8161 29.2647 34.5717C29.3745 34.3259 29.5276 34.135 29.724 33.9991C29.9203 33.8618 30.149 33.7931 30.4099 33.7931C30.6021 33.7931 30.7621 33.8274 30.8898 33.8961C31.0175 33.9634 31.1198 34.0471 31.1966 34.1474C31.2735 34.2476 31.3333 34.3451 31.3758 34.4398H31.4088V32.7818H31.7775V37H31.4191V36.413H31.3758C31.3333 36.5091 31.2729 36.608 31.1946 36.7096C31.1163 36.8098 31.0126 36.8943 30.8836 36.9629C30.7559 37.0316 30.5959 37.0659 30.4037 37.0659ZM30.4469 36.7302C30.6515 36.7302 30.8259 36.6746 30.9701 36.5634C31.1143 36.4508 31.2241 36.2963 31.2996 36.0999C31.3765 35.9022 31.415 35.6756 31.415 35.4202C31.415 35.1676 31.3772 34.9445 31.3017 34.7509C31.2262 34.5559 31.1163 34.4035 30.9721 34.2936C30.828 34.1824 30.6529 34.1268 30.4469 34.1268C30.2355 34.1268 30.057 34.1844 29.9114 34.2998C29.7672 34.4138 29.6574 34.5682 29.5819 34.7632C29.5077 34.9582 29.4707 35.1772 29.4707 35.4202C29.4707 35.666 29.5084 35.8878 29.5839 36.0855C29.6595 36.2832 29.7693 36.4405 29.9135 36.5572C30.059 36.6725 30.2368 36.7302 30.4469 36.7302ZM34.5354 37H34.1317L35.6661 32.7818H36.078L37.6125 37H37.2088L35.8865 33.2823H35.8577L34.5354 37ZM34.8258 35.3832H36.9184V35.7292H34.8258V35.3832ZM38.6258 32.7818V37H38.2592V32.7818H38.6258ZM40.875 37.0659C40.5798 37.0659 40.3244 36.9973 40.1088 36.8599C39.8932 36.7213 39.7264 36.5297 39.6083 36.2853C39.4916 36.0395 39.4332 35.7567 39.4332 35.4367C39.4332 35.1182 39.4916 34.8353 39.6083 34.5881C39.7264 34.3396 39.8891 34.1453 40.0964 34.0053C40.3051 33.8638 40.5461 33.7931 40.8194 33.7931C40.991 33.7931 41.1565 33.8247 41.3158 33.8879C41.475 33.9496 41.6178 34.0451 41.7442 34.1741C41.8719 34.3018 41.9728 34.4632 42.0469 34.6582C42.1211 34.8518 42.1582 35.0811 42.1582 35.3461V35.5273H39.6866V35.204H41.7833C41.7833 35.0008 41.7421 34.8181 41.6597 34.6561C41.5787 34.4927 41.4654 34.3636 41.3199 34.2689C41.1757 34.1741 41.0089 34.1268 40.8194 34.1268C40.6189 34.1268 40.4425 34.1803 40.29 34.2874C40.1376 34.3945 40.0182 34.536 39.9317 34.7117C39.8465 34.8875 39.8033 35.0797 39.8019 35.2884V35.482C39.8019 35.7333 39.8452 35.953 39.9317 36.1411C40.0195 36.3279 40.1438 36.4727 40.3045 36.5757C40.4651 36.6787 40.6553 36.7302 40.875 36.7302C41.0247 36.7302 41.1558 36.7068 41.2684 36.6602C41.3823 36.6135 41.4778 36.551 41.5547 36.4727C41.6329 36.3931 41.692 36.3059 41.7318 36.2112L42.0799 36.3244C42.0318 36.4576 41.9529 36.5805 41.843 36.6931C41.7345 36.8057 41.5986 36.8963 41.4352 36.965C41.2732 37.0323 41.0864 37.0659 40.875 37.0659ZM42.9661 37V33.8364H43.3224V34.3224H43.3491C43.4123 34.1632 43.5222 34.0348 43.6787 33.9373C43.8366 33.8384 44.0151 33.789 44.2142 33.789C44.2444 33.789 44.2781 33.7897 44.3151 33.7911C44.3522 33.7924 44.3831 33.7938 44.4078 33.7952V34.168C44.3913 34.1652 44.3625 34.1611 44.3213 34.1556C44.2801 34.1501 44.2355 34.1474 44.1874 34.1474C44.0227 34.1474 43.8757 34.1824 43.7467 34.2524C43.619 34.3211 43.518 34.4165 43.4439 34.5387C43.3697 34.6609 43.3327 34.8003 43.3327 34.9568V37H42.9661ZM46.4778 33.8364V34.1556H44.968V33.8364H46.4778ZM45.4397 33.0784H45.8084V36.1741C45.8084 36.3059 45.831 36.4096 45.8764 36.4851C45.9217 36.5592 45.9807 36.6121 46.0535 36.6437C46.1263 36.6739 46.2038 36.689 46.2862 36.689C46.3343 36.689 46.3755 36.6862 46.4098 36.6808C46.4441 36.6739 46.4743 36.667 46.5004 36.6602L46.5787 36.9918C46.543 37.0055 46.4991 37.0179 46.4469 37.0288C46.3947 37.0412 46.3302 37.0474 46.2533 37.0474C46.1187 37.0474 45.9889 37.0179 45.864 36.9588C45.7404 36.8998 45.6388 36.8119 45.5592 36.6952C45.4795 36.5785 45.4397 36.4336 45.4397 36.2606V33.0784ZM49.8252 37.0721C49.6344 37.0721 49.46 37.035 49.3021 36.9609C49.1442 36.8853 49.0185 36.7769 48.9252 36.6354C48.8318 36.4926 48.7851 36.3196 48.7851 36.1164C48.7851 35.9599 48.8146 35.8281 48.8737 35.721C48.9327 35.6138 49.0165 35.526 49.1249 35.4573C49.2334 35.3887 49.3618 35.3344 49.5101 35.2946C49.6584 35.2548 49.8218 35.2239 50.0003 35.2019C50.1774 35.1799 50.3271 35.1607 50.4493 35.1442C50.5729 35.1278 50.6669 35.1017 50.7315 35.066C50.796 35.0303 50.8283 34.9726 50.8283 34.893V34.8188C50.8283 34.6032 50.7638 34.4337 50.6347 34.3101C50.507 34.1851 50.323 34.1227 50.0827 34.1227C49.8548 34.1227 49.6687 34.1728 49.5245 34.273C49.3817 34.3732 49.2815 34.4913 49.2238 34.6273L48.8757 34.5016C48.9471 34.3286 49.046 34.1906 49.1723 34.0876C49.2986 33.9833 49.4401 33.9085 49.5966 33.8631C49.7531 33.8165 49.9117 33.7931 50.0724 33.7931C50.1932 33.7931 50.3189 33.8089 50.4493 33.8405C50.5811 33.8721 50.7033 33.927 50.8159 34.0053C50.9285 34.0821 51.0198 34.1899 51.0899 34.3286C51.1599 34.4659 51.1949 34.6403 51.1949 34.8518V37H50.8283V36.4995H50.8056C50.7617 36.5929 50.6965 36.6835 50.61 36.7714C50.5235 36.8593 50.415 36.9313 50.2845 36.9876C50.1541 37.0439 50.001 37.0721 49.8252 37.0721ZM49.8747 36.7364C50.0696 36.7364 50.2385 36.6931 50.3813 36.6066C50.5241 36.5201 50.634 36.4054 50.7109 36.2626C50.7892 36.1185 50.8283 35.9599 50.8283 35.7869V35.3296C50.8008 35.3557 50.7548 35.379 50.6903 35.3996C50.6271 35.4202 50.5537 35.4388 50.4699 35.4553C50.3875 35.4704 50.3051 35.4834 50.2227 35.4944C50.1404 35.5054 50.0662 35.515 50.0003 35.5232C49.8218 35.5452 49.6694 35.5795 49.5431 35.6262C49.4167 35.6729 49.3199 35.7374 49.2526 35.8198C49.1854 35.9008 49.1517 36.0052 49.1517 36.1329C49.1517 36.3251 49.2204 36.4741 49.3577 36.5798C49.495 36.6842 49.6673 36.7364 49.8747 36.7364ZM52.5368 35.0227V37H52.1702V33.8364H52.5265V34.3327H52.5594C52.6336 34.1707 52.7489 34.041 52.9055 33.9435C53.0634 33.8446 53.2583 33.7952 53.4904 33.7952C53.7032 33.7952 53.89 33.8398 54.0506 33.929C54.2126 34.0169 54.3383 34.1467 54.4275 34.3183C54.5182 34.49 54.5635 34.7007 54.5635 34.9506V37H54.1969V34.9733C54.1969 34.7138 54.1241 34.5085 53.9785 34.3575C53.8344 34.2064 53.6408 34.1309 53.3977 34.1309C53.2316 34.1309 53.084 34.1666 52.9549 34.238C52.8258 34.3094 52.7235 34.4124 52.648 34.5469C52.5738 34.6801 52.5368 34.8387 52.5368 35.0227ZM56.6679 37.0659C56.4084 37.0659 56.1812 36.9973 55.9862 36.8599C55.7912 36.7226 55.6388 36.5311 55.5289 36.2853C55.4205 36.0395 55.3662 35.7532 55.3662 35.4264C55.3662 35.101 55.4205 34.8161 55.5289 34.5717C55.6388 34.3259 55.7919 34.135 55.9882 33.9991C56.1846 33.8618 56.4132 33.7931 56.6741 33.7931C56.8663 33.7931 57.0263 33.8274 57.154 33.8961C57.2817 33.9634 57.384 34.0471 57.4609 34.1474C57.5378 34.2476 57.5975 34.3451 57.6401 34.4398H57.673V32.7818H58.0417V37H57.6833V36.413H57.6401C57.5975 36.5091 57.5371 36.608 57.4588 36.7096C57.3806 36.8098 57.2769 36.8943 57.1478 36.9629C57.0201 37.0316 56.8602 37.0659 56.6679 37.0659ZM56.7112 36.7302C56.9158 36.7302 57.0902 36.6746 57.2343 36.5634C57.3785 36.4508 57.4884 36.2963 57.5639 36.0999C57.6408 35.9022 57.6792 35.6756 57.6792 35.4202C57.6792 35.1676 57.6415 34.9445 57.5659 34.7509C57.4904 34.5559 57.3806 34.4035 57.2364 34.2936C57.0922 34.1824 56.9172 34.1268 56.7112 34.1268C56.4997 34.1268 56.3212 34.1844 56.1757 34.2998C56.0315 34.4138 55.9217 34.5682 55.8461 34.7632C55.772 34.9582 55.7349 35.1772 55.7349 35.4202C55.7349 35.666 55.7727 35.8878 55.8482 36.0855C55.9237 36.2832 56.0336 36.4405 56.1777 36.5572C56.3233 36.6725 56.5011 36.7302 56.7112 36.7302ZM62.0292 37H60.7934V32.7818H62.1034C62.5057 32.7818 62.8497 32.8656 63.1353 33.0331C63.4222 33.2006 63.6419 33.4409 63.7944 33.754C63.9468 34.067 64.023 34.4426 64.023 34.8806C64.023 35.3228 63.9447 35.7024 63.7882 36.0196C63.633 36.3354 63.4065 36.5778 63.1085 36.7467C62.8119 36.9156 62.4521 37 62.0292 37ZM61.1786 36.654H62.0066C62.3691 36.654 62.6725 36.5826 62.9169 36.4398C63.1614 36.297 63.3447 36.0931 63.4669 35.8281C63.5891 35.563 63.6502 35.2472 63.6502 34.8806C63.6488 34.5167 63.5884 34.2037 63.4689 33.9414C63.3508 33.6791 63.1751 33.478 62.9417 33.3379C62.7096 33.1979 62.4226 33.1278 62.0807 33.1278H61.1786V36.654ZM66.1594 37.0659C65.8641 37.0659 65.6087 36.9973 65.3932 36.8599C65.1776 36.7213 65.0108 36.5297 64.8927 36.2853C64.776 36.0395 64.7176 35.7567 64.7176 35.4367C64.7176 35.1182 64.776 34.8353 64.8927 34.5881C65.0108 34.3396 65.1735 34.1453 65.3808 34.0053C65.5895 33.8638 65.8305 33.7931 66.1037 33.7931C66.2754 33.7931 66.4408 33.8247 66.6001 33.8879C66.7594 33.9496 66.9022 34.0451 67.0285 34.1741C67.1562 34.3018 67.2572 34.4632 67.3313 34.6582C67.4055 34.8518 67.4425 35.0811 67.4425 35.3461V35.5273H64.9709V35.204H67.0677C67.0677 35.0008 67.0265 34.8181 66.9441 34.6561C66.8631 34.4927 66.7498 34.3636 66.6042 34.2689C66.4601 34.1741 66.2932 34.1268 66.1037 34.1268C65.9033 34.1268 65.7268 34.1803 65.5744 34.2874C65.422 34.3945 65.3025 34.536 65.216 34.7117C65.1309 34.8875 65.0876 35.0797 65.0863 35.2884V35.482C65.0863 35.7333 65.1295 35.953 65.216 36.1411C65.3039 36.3279 65.4282 36.4727 65.5888 36.5757C65.7495 36.6787 65.9397 36.7302 66.1594 36.7302C66.309 36.7302 66.4402 36.7068 66.5528 36.6602C66.6667 36.6135 66.7622 36.551 66.839 36.4727C66.9173 36.3931 66.9764 36.3059 67.0162 36.2112L67.3643 36.3244C67.3162 36.4576 67.2372 36.5805 67.1274 36.6931C67.0189 36.8057 66.883 36.8963 66.7196 36.965C66.5576 37.0323 66.3708 37.0659 66.1594 37.0659ZM69.4965 33.8364V34.1556H67.9868V33.8364H69.4965ZM68.4585 33.0784H68.8271V36.1741C68.8271 36.3059 68.8498 36.4096 68.8951 36.4851C68.9404 36.5592 68.9995 36.6121 69.0722 36.6437C69.145 36.6739 69.2226 36.689 69.305 36.689C69.353 36.689 69.3942 36.6862 69.4286 36.6808C69.4629 36.6739 69.4931 36.667 69.5192 36.6602L69.5974 36.9918C69.5617 37.0055 69.5178 37.0179 69.4656 37.0288C69.4134 37.0412 69.3489 37.0474 69.272 37.0474C69.1375 37.0474 69.0077 37.0179 68.8827 36.9588C68.7592 36.8998 68.6576 36.8119 68.5779 36.6952C68.4983 36.5785 68.4585 36.4336 68.4585 36.2606V33.0784ZM71.5742 37.0659C71.279 37.0659 71.0236 36.9973 70.808 36.8599C70.5924 36.7213 70.4256 36.5297 70.3075 36.2853C70.1908 36.0395 70.1324 35.7567 70.1324 35.4367C70.1324 35.1182 70.1908 34.8353 70.3075 34.5881C70.4256 34.3396 70.5883 34.1453 70.7957 34.0053C71.0044 33.8638 71.2453 33.7931 71.5186 33.7931C71.6902 33.7931 71.8557 33.8247 72.015 33.8879C72.1742 33.9496 72.3171 34.0451 72.4434 34.1741C72.5711 34.3018 72.672 34.4632 72.7461 34.6582C72.8203 34.8518 72.8574 35.0811 72.8574 35.3461V35.5273H70.3858V35.204H72.4825C72.4825 35.0008 72.4413 34.8181 72.3589 34.6561C72.2779 34.4927 72.1646 34.3636 72.0191 34.2689C71.8749 34.1741 71.7081 34.1268 71.5186 34.1268C71.3181 34.1268 71.1417 34.1803 70.9893 34.2874C70.8368 34.3945 70.7174 34.536 70.6309 34.7117C70.5457 34.8875 70.5025 35.0797 70.5011 35.2884V35.482C70.5011 35.7333 70.5444 35.953 70.6309 36.1411C70.7188 36.3279 70.843 36.4727 71.0037 36.5757C71.1643 36.6787 71.3545 36.7302 71.5742 36.7302C71.7239 36.7302 71.855 36.7068 71.9676 36.6602C72.0816 36.6135 72.177 36.551 72.2539 36.4727C72.3322 36.3931 72.3912 36.3059 72.431 36.2112L72.7791 36.3244C72.731 36.4576 72.6521 36.5805 72.5422 36.6931C72.4338 36.8057 72.2978 36.8963 72.1344 36.965C71.9724 37.0323 71.7857 37.0659 71.5742 37.0659ZM74.9011 37.0659C74.6182 37.0659 74.3717 36.9952 74.1616 36.8538C73.9529 36.7123 73.7909 36.5187 73.6756 36.2729C73.5602 36.0272 73.5026 35.747 73.5026 35.4326C73.5026 35.1154 73.5609 34.8332 73.6776 34.5861C73.7957 34.3389 73.9591 34.1453 74.1678 34.0053C74.3765 33.8638 74.6189 33.7931 74.8949 33.7931C75.1063 33.7931 75.2979 33.8343 75.4695 33.9167C75.6412 33.9977 75.7826 34.1124 75.8938 34.2607C76.0064 34.4076 76.0771 34.5792 76.106 34.7756H75.7352C75.6968 34.5971 75.6041 34.4446 75.4572 34.3183C75.3116 34.1906 75.1263 34.1268 74.9011 34.1268C74.6992 34.1268 74.5207 34.1817 74.3656 34.2915C74.2104 34.4 74.0889 34.5518 74.001 34.7467C73.9145 34.9403 73.8712 35.1648 73.8712 35.4202C73.8712 35.677 73.9138 35.9043 73.9989 36.102C74.0841 36.2983 74.2035 36.4521 74.3573 36.5634C74.5125 36.6746 74.6937 36.7302 74.9011 36.7302C75.0411 36.7302 75.1688 36.7041 75.2842 36.6519C75.4009 36.5984 75.4984 36.5228 75.5766 36.4254C75.6563 36.3279 75.7098 36.2118 75.7373 36.0773H76.108C76.0806 36.2681 76.0126 36.4384 75.9041 36.5881C75.797 36.7364 75.6576 36.8531 75.486 36.9382C75.3157 37.0233 75.1208 37.0659 74.9011 37.0659ZM78.1399 33.8364V34.1556H76.6302V33.8364H78.1399ZM77.1018 33.0784H77.4705V36.1741C77.4705 36.3059 77.4931 36.4096 77.5385 36.4851C77.5838 36.5592 77.6428 36.6121 77.7156 36.6437C77.7884 36.6739 77.8659 36.689 77.9483 36.689C77.9964 36.689 78.0376 36.6862 78.0719 36.6808C78.1062 36.6739 78.1364 36.667 78.1625 36.6602L78.2408 36.9918C78.2051 37.0055 78.1612 37.0179 78.109 37.0288C78.0568 37.0412 77.9923 37.0474 77.9154 37.0474C77.7808 37.0474 77.6511 37.0179 77.5261 36.9588C77.4025 36.8998 77.3009 36.8119 77.2213 36.6952C77.1416 36.5785 77.1018 36.4336 77.1018 36.2606V33.0784ZM78.9766 37V33.8364H79.3453V37H78.9766ZM79.164 33.2926C79.0885 33.2926 79.024 33.2672 78.9704 33.2164C78.9169 33.1642 78.8901 33.1018 78.8901 33.029C78.8901 32.9562 78.9169 32.8944 78.9704 32.8436C79.024 32.7914 79.0885 32.7653 79.164 32.7653C79.2396 32.7653 79.3041 32.7914 79.3577 32.8436C79.4112 32.8944 79.438 32.9562 79.438 33.029C79.438 33.1018 79.4112 33.1642 79.3577 33.2164C79.3041 33.2672 79.2396 33.2926 79.164 33.2926ZM81.5445 37.0659C81.2713 37.0659 81.0296 36.9966 80.8195 36.8579C80.6108 36.7192 80.4474 36.5277 80.3293 36.2832C80.2112 36.0375 80.1522 35.7539 80.1522 35.4326C80.1522 35.1085 80.2112 34.8236 80.3293 34.5778C80.4474 34.3307 80.6108 34.1384 80.8195 34.0011C81.0296 33.8625 81.2713 33.7931 81.5445 33.7931C81.8177 33.7931 82.0587 33.8625 82.2674 34.0011C82.4762 34.1398 82.6396 34.3321 82.7576 34.5778C82.8771 34.8236 82.9368 35.1085 82.9368 35.4326C82.9368 35.7539 82.8778 36.0375 82.7597 36.2832C82.6416 36.5277 82.4775 36.7192 82.2674 36.8579C82.0587 36.9966 81.8177 37.0659 81.5445 37.0659ZM81.5445 36.7302C81.7642 36.7302 81.9503 36.6711 82.1027 36.5531C82.2551 36.435 82.3704 36.2777 82.4487 36.0814C82.5283 35.885 82.5682 35.6688 82.5682 35.4326C82.5682 35.1964 82.5283 34.9795 82.4487 34.7817C82.3704 34.584 82.2551 34.4254 82.1027 34.306C81.9503 34.1865 81.7642 34.1268 81.5445 34.1268C81.3262 34.1268 81.1401 34.1865 80.9863 34.306C80.8339 34.4254 80.7179 34.584 80.6383 34.7817C80.56 34.9795 80.5208 35.1964 80.5208 35.4326C80.5208 35.6688 80.56 35.885 80.6383 36.0814C80.7179 36.2777 80.8339 36.435 80.9863 36.5531C81.1387 36.6711 81.3248 36.7302 81.5445 36.7302ZM84.1083 35.0227V37H83.7416V33.8364H84.098V34.3327H84.1309C84.2051 34.1707 84.3204 34.041 84.4769 33.9435C84.6348 33.8446 84.8298 33.7952 85.0619 33.7952C85.2747 33.7952 85.4615 33.8398 85.6221 33.929C85.7841 34.0169 85.9098 34.1467 85.999 34.3183C86.0897 34.49 86.135 34.7007 86.135 34.9506V37H85.7683V34.9733C85.7683 34.7138 85.6956 34.5085 85.55 34.3575C85.4058 34.2064 85.2122 34.1309 84.9692 34.1309C84.8031 34.1309 84.6554 34.1666 84.5264 34.238C84.3973 34.3094 84.295 34.4124 84.2195 34.5469C84.1453 34.6801 84.1083 34.8387 84.1083 35.0227ZM88.8141 37H88.4104L89.9448 32.7818H90.3567L91.8912 37H91.4875L90.1652 33.2823H90.1364L88.8141 37ZM89.1045 35.3832H91.1971V35.7292H89.1045V35.3832ZM92.9045 35.0227V37H92.5379V33.8364H92.8943V34.3327H92.9272C93.0014 34.1707 93.1167 34.041 93.2732 33.9435C93.4311 33.8446 93.6261 33.7952 93.8582 33.7952C94.071 33.7952 94.2577 33.8398 94.4184 33.929C94.5804 34.0169 94.7061 34.1467 94.7953 34.3183C94.8859 34.49 94.9313 34.7007 94.9313 34.9506V37H94.5646V34.9733C94.5646 34.7138 94.4919 34.5085 94.3463 34.3575C94.2021 34.2064 94.0085 34.1309 93.7655 34.1309C93.5993 34.1309 93.4517 34.1666 93.3227 34.238C93.1936 34.3094 93.0913 34.4124 93.0158 34.5469C92.9416 34.6801 92.9045 34.8387 92.9045 35.0227ZM96.7803 37.0721C96.5894 37.0721 96.4151 37.035 96.2572 36.9609C96.0992 36.8853 95.9736 36.7769 95.8802 36.6354C95.7869 36.4926 95.7402 36.3196 95.7402 36.1164C95.7402 35.9599 95.7697 35.8281 95.8287 35.721C95.8878 35.6138 95.9716 35.526 96.08 35.4573C96.1885 35.3887 96.3169 35.3344 96.4652 35.2946C96.6135 35.2548 96.7769 35.2239 96.9554 35.2019C97.1325 35.1799 97.2822 35.1607 97.4044 35.1442C97.528 35.1278 97.622 35.1017 97.6866 35.066C97.7511 35.0303 97.7834 34.9726 97.7834 34.893V34.8188C97.7834 34.6032 97.7188 34.4337 97.5898 34.3101C97.4621 34.1851 97.2781 34.1227 97.0378 34.1227C96.8098 34.1227 96.6238 34.1728 96.4796 34.273C96.3368 34.3732 96.2366 34.4913 96.1789 34.6273L95.8308 34.5016C95.9022 34.3286 96.0011 34.1906 96.1274 34.0876C96.2537 33.9833 96.3952 33.9085 96.5517 33.8631C96.7082 33.8165 96.8668 33.7931 97.0275 33.7931C97.1483 33.7931 97.2739 33.8089 97.4044 33.8405C97.5362 33.8721 97.6584 33.927 97.771 34.0053C97.8836 34.0821 97.9749 34.1899 98.0449 34.3286C98.115 34.4659 98.15 34.6403 98.15 34.8518V37H97.7834V36.4995H97.7607C97.7168 36.5929 97.6515 36.6835 97.565 36.7714C97.4785 36.8593 97.3701 36.9313 97.2396 36.9876C97.1092 37.0439 96.9561 37.0721 96.7803 37.0721ZM96.8297 36.7364C97.0247 36.7364 97.1936 36.6931 97.3364 36.6066C97.4792 36.5201 97.5891 36.4054 97.666 36.2626C97.7442 36.1185 97.7834 35.9599 97.7834 35.7869V35.3296C97.7559 35.3557 97.7099 35.379 97.6454 35.3996C97.5822 35.4202 97.5087 35.4388 97.425 35.4553C97.3426 35.4704 97.2602 35.4834 97.1778 35.4944C97.0954 35.5054 97.0213 35.515 96.9554 35.5232C96.7769 35.5452 96.6245 35.5795 96.4981 35.6262C96.3718 35.6729 96.275 35.7374 96.2077 35.8198C96.1404 35.9008 96.1068 36.0052 96.1068 36.1329C96.1068 36.3251 96.1755 36.4741 96.3128 36.5798C96.4501 36.6842 96.6224 36.7364 96.8297 36.7364ZM99.4919 32.7818V37H99.1252V32.7818H99.4919ZM100.717 38.1864C100.645 38.1864 100.577 38.1795 100.513 38.1658C100.45 38.152 100.4 38.1369 100.363 38.1205L100.462 37.7971C100.587 37.8355 100.698 37.8493 100.796 37.8383C100.893 37.8287 100.98 37.7847 101.055 37.7065C101.131 37.6296 101.198 37.5115 101.257 37.3522L101.372 37.0309L100.209 33.8364H100.606L101.545 36.516H101.574L102.513 33.8364H102.911L101.572 37.5005C101.516 37.6529 101.446 37.7799 101.364 37.8815C101.282 37.9845 101.186 38.0607 101.078 38.1102C100.971 38.161 100.851 38.1864 100.717 38.1864ZM104.874 33.8364V34.1556H103.365V33.8364H104.874ZM103.836 33.0784H104.205V36.1741C104.205 36.3059 104.228 36.4096 104.273 36.4851C104.318 36.5592 104.377 36.6121 104.45 36.6437C104.523 36.6739 104.6 36.689 104.683 36.689C104.731 36.689 104.772 36.6862 104.806 36.6808C104.841 36.6739 104.871 36.667 104.897 36.6602L104.975 36.9918C104.939 37.0055 104.896 37.0179 104.843 37.0288C104.791 37.0412 104.727 37.0474 104.65 37.0474C104.515 37.0474 104.385 37.0179 104.26 36.9588C104.137 36.8998 104.035 36.8119 103.956 36.6952C103.876 36.5785 103.836 36.4336 103.836 36.2606V33.0784ZM105.711 37V33.8364H106.08V37H105.711ZM105.898 33.2926C105.823 33.2926 105.758 33.2672 105.705 33.2164C105.651 33.1642 105.624 33.1018 105.624 33.029C105.624 32.9562 105.651 32.8944 105.705 32.8436C105.758 32.7914 105.823 32.7653 105.898 32.7653C105.974 32.7653 106.038 32.7914 106.092 32.8436C106.146 32.8944 106.172 32.9562 106.172 33.029C106.172 33.1018 106.146 33.1642 106.092 33.2164C106.038 33.2672 105.974 33.2926 105.898 33.2926ZM108.285 37.0659C108.002 37.0659 107.756 36.9952 107.546 36.8538C107.337 36.7123 107.175 36.5187 107.06 36.2729C106.944 36.0272 106.887 35.747 106.887 35.4326C106.887 35.1154 106.945 34.8332 107.062 34.5861C107.18 34.3389 107.343 34.1453 107.552 34.0053C107.761 33.8638 108.003 33.7931 108.279 33.7931C108.49 33.7931 108.682 33.8343 108.854 33.9167C109.025 33.9977 109.167 34.1124 109.278 34.2607C109.39 34.4076 109.461 34.5792 109.49 34.7756H109.119C109.081 34.5971 108.988 34.4446 108.841 34.3183C108.696 34.1906 108.51 34.1268 108.285 34.1268C108.083 34.1268 107.905 34.1817 107.75 34.2915C107.594 34.4 107.473 34.5518 107.385 34.7467C107.298 34.9403 107.255 35.1648 107.255 35.4202C107.255 35.677 107.298 35.9043 107.383 36.102C107.468 36.2983 107.588 36.4521 107.741 36.5634C107.896 36.6746 108.078 36.7302 108.285 36.7302C108.425 36.7302 108.553 36.7041 108.668 36.6519C108.785 36.5984 108.882 36.5228 108.961 36.4254C109.04 36.3279 109.094 36.2118 109.121 36.0773H109.492C109.465 36.2681 109.397 36.4384 109.288 36.5881C109.181 36.7364 109.042 36.8531 108.87 36.9382C108.7 37.0233 108.505 37.0659 108.285 37.0659ZM112.403 34.5305L112.068 34.6252C112.035 34.5305 111.988 34.4446 111.928 34.3678C111.867 34.2909 111.788 34.2298 111.691 34.1844C111.595 34.1391 111.475 34.1165 111.332 34.1165C111.118 34.1165 110.942 34.1673 110.805 34.2689C110.668 34.3705 110.599 34.5016 110.599 34.6623C110.599 34.7982 110.646 34.9088 110.739 34.9939C110.834 35.0777 110.979 35.1442 111.176 35.1937L111.654 35.3111C111.919 35.3756 112.117 35.4779 112.249 35.618C112.382 35.758 112.449 35.9338 112.449 36.1452C112.449 36.3237 112.399 36.4823 112.3 36.621C112.201 36.7597 112.063 36.8689 111.886 36.9485C111.711 37.0268 111.507 37.0659 111.275 37.0659C110.966 37.0659 110.711 36.9966 110.511 36.8579C110.31 36.7178 110.182 36.516 110.125 36.2523L110.478 36.1658C110.523 36.354 110.611 36.4961 110.743 36.5922C110.876 36.6883 111.052 36.7364 111.268 36.7364C111.512 36.7364 111.706 36.6821 111.851 36.5737C111.997 36.4638 112.07 36.3265 112.07 36.1617C112.07 36.034 112.027 35.9269 111.942 35.8404C111.857 35.7525 111.728 35.688 111.555 35.6468L111.038 35.5232C110.763 35.4573 110.56 35.353 110.428 35.2102C110.296 35.0674 110.23 34.8902 110.23 34.6788C110.23 34.5044 110.278 34.3513 110.373 34.2195C110.467 34.0863 110.598 33.9819 110.764 33.9064C110.93 33.8309 111.119 33.7931 111.332 33.7931C111.622 33.7931 111.853 33.859 112.026 33.9908C112.201 34.1213 112.326 34.3012 112.403 34.5305Z" fill="#06276B"/>
</g>
<defs>
<linearGradient id="paint0_linear_1_2" x1="0.5" y1="-6" x2="128.5" y2="44" gradientUnits="userSpaceOnUse">
<stop stop-color="#1CB5E0"/>
<stop offset="1" stop-color="#000851"/>
</linearGradient>
<clipPath id="clip0_1_2">
<rect width="128" height="40" fill="white"/>
</clipPath>
</defs>
</svg>
